# Noesis .obj export.
#
mtllib unused.mtl
g
v  22.203390 -1.783729 13.490170
v  22.203390 2.205424 13.490170
v  22.788448 2.205289 14.987473
v  22.793320 -1.783577 15.052192
v  22.439041 2.205479 16.549999
v  22.434246 -1.783562 16.569178
v  20.571608 2.205402 16.940954
v  22.788448 2.205289 14.987473
v  22.203390 2.205424 13.490170
v  20.572865 -1.783920 16.944096
v  22.793320 -1.783577 15.052192
v  22.203390 -1.783729 13.490170
v  17.430016 2.205428 11.713145
v  19.335300 2.205431 8.116293
v  17.430548 -1.783928 11.714742
v  19.335300 -1.783943 8.116293
v  20.109884 -1.305095 17.065071
v  20.109884 1.726826 17.065071
v  17.078207 -1.305005 11.982795
v  15.513258 -1.783617 9.551136
v  17.579174 -1.783682 5.862587
v  17.078207 1.726277 11.982795
v  15.211699 1.726555 9.898329
v  15.512784 2.205019 9.550189
v  17.579174 2.205046 5.862587
v  15.211699 -1.305014 9.898329
v  13.018283 1.726550 8.132353
v  13.259814 2.205180 7.717119
v  15.439208 2.204995 3.973610
v  12.097119 2.205317 1.959749
v  13.018283 -1.305246 8.132353
v  9.654096 1.726576 6.012670
v  9.839640 2.205105 5.574474
v  8.387353 2.205325 0.530466
v  9.654096 -1.305245 6.012670
v  6.107942 2.205257 3.936055
v  0.566833 2.205209 -1.954503
v  5.988667 1.726558 4.382928
v  -1.813097 2.205209 1.113070
v  -0.857585 2.205209 -1.685086
v  -1.809876 1.726524 1.591692
v  -1.957127 2.205209 -0.895612
v  -1.809876 -1.305181 1.591692
v  5.988667 -1.305246 4.382928
v  -2.009013 -1.783814 -0.802391
v  9.837538 -1.783784 5.573874
v  -0.883608 -1.783821 -1.638413
v  -0.857585 2.205209 -1.685086
v  0.566833 2.205209 -1.954503
v  0.566810 -1.783822 -1.954486
v  -1.823022 -1.783799 1.113219
v  -0.883608 -1.783821 -1.638413
v  0.566810 -1.783822 -1.954486
v  6.103018 -1.783718 3.935916
v  8.387353 -1.783922 0.530466
v  12.097119 -1.783973 1.959749
v  13.259814 -1.783893 7.717119
v  15.439208 -1.783695 3.973610
v  8.387353 -1.783922 0.530466
v  0.566810 -1.783822 -1.954486
v  0.566833 2.205209 -1.954503
v  8.387353 2.205325 0.530466
v  12.097119 -1.783973 1.959749
v  12.097119 2.205317 1.959749
v  15.439208 2.204995 3.973610
v  15.439208 -1.783695 3.973610
v  17.579174 2.205046 5.862587
v  17.579174 -1.783682 5.862587
v  19.335300 2.205431 8.116293
v  19.335300 -1.783943 8.116293
v  22.203390 -1.783729 13.490170
v  22.203390 2.205424 13.490170
v  26.107571 3.960159 10.446215
v  27.569023 3.960438 11.473906
v  27.569023 -3.888047 11.473906
v  26.107571 -3.888446 10.446215
v  24.322197 -3.888641 10.200445
v  24.322197 3.959911 10.200445
v  22.536133 3.960083 10.445973
v  22.536133 -3.888507 10.445973
v  21.074646 -3.888031 11.474260
v  21.074646 3.960103 11.474260
v  20.010996 3.960293 12.849725
v  20.010996 -3.888210 12.849725
v  19.729519 -3.888554 14.549397
v  19.729519 3.960241 14.549397
v  20.010996 3.960293 16.248625
v  20.010996 -3.888210 16.248625
v  21.074646 -3.888031 17.624195
v  21.074646 3.960103 17.624195
v  22.536133 3.960083 18.652443
v  22.536133 -3.888507 18.652443
v  24.322197 -3.888641 18.897551
v  24.322197 3.959911 18.897551
v  26.107571 3.960159 18.651793
v  26.107571 -3.888446 18.651793
v  27.569023 -3.888047 17.624578
v  27.569023 3.960438 17.624578
v  28.632868 3.959790 16.248251
v  28.632868 -3.888112 16.248251
v  28.914387 -3.887908 14.548985
v  28.914387 3.960282 14.548985
v  28.632868 3.959790 12.849650
v  28.632868 -3.888112 12.849650
v  27.569023 -3.888047 11.473906
v  27.569023 3.960438 11.473906
v  24.322197 6.499629 14.549369
v  22.536133 3.960083 10.445973
v  21.074646 3.960103 11.474260
v  20.010996 3.960293 12.849725
v  24.322197 3.959911 10.200445
v  19.729519 3.960241 14.549397
v  26.107571 3.960159 10.446215
v  20.010996 3.960293 16.248625
v  27.569023 3.960438 11.473906
v  21.074646 3.960103 17.624195
v  28.632868 3.959790 12.849650
v  22.536133 3.960083 18.652443
v  28.914387 3.960282 14.548985
v  24.322197 3.959911 18.897551
v  28.632868 3.959790 16.248251
v  26.107571 3.960159 18.651793
v  27.569023 3.960438 17.624578
v  21.074646 -3.888031 11.474260
v  22.536133 -3.888507 10.445973
v  24.322197 -6.428360 14.549369
v  24.322197 -3.888641 10.200445
v  20.010996 -3.888210 12.849725
v  26.107571 -3.888446 10.446215
v  19.729519 -3.888554 14.549397
v  27.569023 -3.888047 11.473906
v  20.010996 -3.888210 16.248625
v  28.632868 -3.888112 12.849650
v  21.074646 -3.888031 17.624195
v  28.914387 -3.887908 14.548985
v  22.536133 -3.888507 18.652443
v  28.632868 -3.888112 16.248251
v  24.322197 -3.888641 18.897551
v  27.569023 -3.888047 17.624578
v  26.107571 -3.888446 18.651793

vt  0.531250 0.989746 0.000000
vt  0.435303 0.989258 0.000000
vt  0.435303 0.954102 0.000000
vt  0.531250 0.954102 0.000000
vt  0.435303 0.917480 0.000000
vt  0.531250 0.917480 0.000000
vt  0.435303 0.887207 0.000000
vt  0.393066 0.917480 0.000000
vt  0.357666 0.887207 0.000000
vt  0.531250 0.887207 0.000000
vt  0.575195 0.917480 0.000000
vt  0.612305 0.887207 0.000000
vt  0.435303 0.760742 0.000000
vt  0.357666 0.760742 0.000000
vt  0.531250 0.760742 0.000000
vt  0.612305 0.760742 0.000000
vt  0.515137 0.859375 0.000000
vt  0.453125 0.859375 0.000000
vt  0.515137 0.747070 0.000000
vt  0.531250 0.697754 0.000000
vt  0.612305 0.697754 0.000000
vt  0.453125 0.747070 0.000000
vt  0.453125 0.690918 0.000000
vt  0.435303 0.697754 0.000000
vt  0.357666 0.697754 0.000000
vt  0.515137 0.690918 0.000000
vt  0.453125 0.634766 0.000000
vt  0.435303 0.634766 0.000000
vt  0.357666 0.634766 0.000000
vt  0.357666 0.548340 0.000000
vt  0.515137 0.634766 0.000000
vt  0.453125 0.548340 0.000000
vt  0.435303 0.545410 0.000000
vt  0.357666 0.462402 0.000000
vt  0.515137 0.548340 0.000000
vt  0.435303 0.456055 0.000000
vt  0.357666 0.290039 0.000000
vt  0.452881 0.462402 0.000000
vt  0.435303 0.277588 0.000000
vt  0.373779 0.245972 0.000000
vt  0.452881 0.290039 0.000000
vt  0.435303 0.223145 0.000000
vt  0.515625 0.290039 0.000000
vt  0.515137 0.462402 0.000000
vt  0.531250 0.223145 0.000000
vt  0.531250 0.545410 0.000000
vt  0.531250 0.193359 0.000000
vt  0.435303 0.193359 0.000000
vt  0.435303 0.159180 0.000000
vt  0.531250 0.159180 0.000000
vt  0.531250 0.277588 0.000000
vt  0.582031 0.245972 0.000000
vt  0.612305 0.290039 0.000000
vt  0.531250 0.456055 0.000000
vt  0.612305 0.462402 0.000000
vt  0.612305 0.548340 0.000000
vt  0.531250 0.634766 0.000000
vt  0.612305 0.634766 0.000000
vt  0.283691 0.748047 0.000000
vt  0.283691 0.646484 0.000000
vt  0.331787 0.646484 0.000000
vt  0.331787 0.748047 0.000000
vt  0.283691 0.798828 0.000000
vt  0.331787 0.798828 0.000000
vt  0.331787 0.849121 0.000000
vt  0.283691 0.849121 0.000000
vt  0.331787 0.872559 0.000000
vt  0.283691 0.872559 0.000000
vt  0.331787 0.895508 0.000000
vt  0.283691 0.895508 0.000000
vt  0.283691 0.941406 0.000000
vt  0.331787 0.941406 0.000000
vt  0.474365 0.043274 0.000000
vt  0.487793 0.043274 0.000000
vt  0.487793 0.116760 0.000000
vt  0.474365 0.116760 0.000000
vt  0.460938 0.116760 0.000000
vt  0.460938 0.043274 0.000000
vt  0.447510 0.043274 0.000000
vt  0.447510 0.116760 0.000000
vt  0.434082 0.116760 0.000000
vt  0.434082 0.043274 0.000000
vt  0.421387 0.043274 0.000000
vt  0.421387 0.116760 0.000000
vt  0.408691 0.116760 0.000000
vt  0.408691 0.043274 0.000000
vt  0.395996 0.043274 0.000000
vt  0.395996 0.116760 0.000000
vt  0.383057 0.116760 0.000000
vt  0.383057 0.043274 0.000000
vt  0.369873 0.043274 0.000000
vt  0.369873 0.116760 0.000000
vt  0.356201 0.116760 0.000000
vt  0.356201 0.043274 0.000000
vt  0.342773 0.043274 0.000000
vt  0.342773 0.116760 0.000000
vt  0.329346 0.116760 0.000000
vt  0.329346 0.043274 0.000000
vt  0.316650 0.043274 0.000000
vt  0.316650 0.116760 0.000000
vt  0.303955 0.116760 0.000000
vt  0.303955 0.043274 0.000000
vt  0.291260 0.043274 0.000000
vt  0.291260 0.116760 0.000000
vt  0.278564 0.116760 0.000000
vt  0.278564 0.043274 0.000000
vt  0.918945 0.916992 0.000000
vt  0.892090 0.853027 0.000000
vt  0.865723 0.864258 0.000000
vt  0.854980 0.890625 0.000000
vt  0.918945 0.842285 0.000000
vt  0.843750 0.916992 0.000000
vt  0.945313 0.853027 0.000000
vt  0.854980 0.943848 0.000000
vt  0.971680 0.864258 0.000000
vt  0.865723 0.970215 0.000000
vt  0.982422 0.890625 0.000000
vt  0.892090 0.980957 0.000000
vt  0.993652 0.916992 0.000000
vt  0.918945 0.992188 0.000000
vt  0.982422 0.943848 0.000000
vt  0.945313 0.980957 0.000000
vt  0.971680 0.970215 0.000000
vt  0.865723 0.864258 0.000000
vt  0.892090 0.853027 0.000000
vt  0.918945 0.916992 0.000000
vt  0.918945 0.842285 0.000000
vt  0.854980 0.890625 0.000000
vt  0.945313 0.853027 0.000000
vt  0.843750 0.916992 0.000000
vt  0.971680 0.864258 0.000000
vt  0.854980 0.943848 0.000000
vt  0.982422 0.890625 0.000000
vt  0.865723 0.970215 0.000000
vt  0.993652 0.916992 0.000000
vt  0.892090 0.980957 0.000000
vt  0.982422 0.943848 0.000000
vt  0.918945 0.992188 0.000000
vt  0.971680 0.970215 0.000000
vt  0.945313 0.980957 0.000000

vn  0.431421 -0.887043 -0.164408
vn  0.429403 0.887406 -0.167701
vn  0.759682 0.647585 -0.059299
vn  0.760625 -0.647422 -0.047902
vn  0.559273 0.604871 0.566873
vn  0.554303 -0.603003 0.573703
vn  -0.081502 0.711720 0.697719
vn  0.759682 0.647585 -0.059299
vn  0.429403 0.887406 -0.167701
vn  -0.084103 -0.710923 0.698223
vn  0.760625 -0.647422 -0.047902
vn  0.431421 -0.887043 -0.164408
vn  -0.306407 0.925023 0.224605
vn  0.000000 1.000000 0.000000
vn  -0.306701 -0.924902 0.224701
vn  0.000000 -1.000000 0.000000
vn  -0.424683 -0.280889 0.860666
vn  -0.422019 0.281613 0.861739
vn  -0.748240 -0.373020 0.548629
vn  -0.257695 -0.927182 0.271895
vn  0.000000 -1.000000 0.000000
vn  -0.748156 0.373278 0.548568
vn  -0.637196 0.380198 0.670396
vn  -0.257602 0.927206 0.271902
vn  0.000000 1.000000 0.000000
vn  -0.637178 -0.380087 0.670476
vn  -0.537376 0.386882 0.749366
vn  -0.215090 0.928958 0.301286
vn  0.000000 1.000000 0.000000
vn  0.000000 1.000000 0.000000
vn  -0.537395 -0.386996 0.749293
vn  -0.434811 0.387009 0.813120
vn  -0.172799 0.929093 0.326997
vn  0.000000 1.000000 0.000000
vn  -0.434907 -0.386706 0.813213
vn  -0.141605 0.923033 0.357713
vn  -0.098301 0.858909 -0.502605
vn  -0.344410 0.376711 0.859925
vn  -0.654395 0.711895 0.254898
vn  -0.295396 0.658492 -0.692192
vn  -0.741822 0.277208 0.610618
vn  -0.712825 0.613521 -0.339812
vn  -0.736776 -0.274791 0.617780
vn  -0.344496 -0.375796 0.860291
vn  -0.724293 -0.612094 -0.317397
vn  -0.172889 -0.928941 0.327379
vn  -0.306894 -0.664988 -0.680887
vn  -0.295396 0.658492 -0.692192
vn  -0.098301 0.858909 -0.502605
vn  -0.109501 -0.857611 -0.502507
vn  -0.653704 -0.709504 0.263202
vn  -0.306894 -0.664988 -0.680887
vn  -0.109501 -0.857611 -0.502507
vn  -0.141795 -0.922665 0.358586
vn  0.000000 -1.000000 0.000000
vn  0.000000 -1.000000 0.000000
vn  -0.215001 -0.929006 0.301202
vn  0.000000 -1.000000 0.000000
vn  0.331308 0.000000 -0.943523
vn  0.302816 0.000000 -0.953049
vn  0.302816 0.000000 -0.953049
vn  0.331308 0.000000 -0.943523
vn  0.439517 0.000000 -0.898234
vn  0.439517 0.000000 -0.898234
vn  0.591390 0.000000 -0.806386
vn  0.591390 0.000000 -0.806386
vn  0.728376 0.000000 -0.685178
vn  0.728376 0.000000 -0.685178
vn  0.838576 0.000000 -0.544784
vn  0.838576 0.000000 -0.544784
vn  0.882231 0.000000 -0.470817
vn  0.882231 0.000000 -0.470817
vn  0.366092 0.000000 -0.930579
vn  0.690925 0.000000 -0.722926
vn  0.690925 0.000000 -0.722926
vn  0.366092 0.000000 -0.930579
vn  0.000000 0.000000 -1.000000
vn  0.000000 0.000000 -1.000000
vn  -0.366092 0.000000 -0.930579
vn  -0.366092 0.000000 -0.930579
vn  -0.690925 0.000000 -0.722926
vn  -0.690925 0.000000 -0.722926
vn  -0.916691 0.000000 -0.399596
vn  -0.916691 0.000000 -0.399596
vn  -1.000000 0.000000 0.000000
vn  -1.000000 0.000000 0.000000
vn  -0.916691 0.000000 0.399596
vn  -0.916691 0.000000 0.399596
vn  -0.690925 0.000000 0.722926
vn  -0.690925 0.000000 0.722926
vn  -0.366092 0.000000 0.930579
vn  -0.366092 0.000000 0.930579
vn  0.000000 0.000000 1.000000
vn  0.000000 0.000000 1.000000
vn  0.366092 0.000000 0.930579
vn  0.366092 0.000000 0.930579
vn  0.690925 0.000000 0.722926
vn  0.690925 0.000000 0.722926
vn  0.916691 0.000000 0.399596
vn  0.916691 0.000000 0.399596
vn  1.000000 0.000000 0.000000
vn  1.000000 0.000000 0.000000
vn  0.916691 0.000000 -0.399596
vn  0.916691 0.000000 -0.399596
vn  0.690925 0.000000 -0.722926
vn  0.690925 0.000000 -0.722926
vn  0.000000 1.000000 0.000000
vn  -0.182596 0.869581 -0.458790
vn  -0.342812 0.869330 -0.356012
vn  -0.441510 0.876821 -0.190405
vn  0.000000 0.863521 -0.504312
vn  -0.483986 0.875076 0.000000
vn  0.182596 0.869581 -0.458790
vn  -0.441510 0.876821 0.190405
vn  0.342812 0.869330 -0.356012
vn  -0.342812 0.869330 0.356012
vn  0.441510 0.876821 -0.190405
vn  -0.182596 0.869581 0.458790
vn  0.483986 0.875076 0.000000
vn  0.000000 0.863521 0.504312
vn  0.441510 0.876821 0.190405
vn  0.182596 0.869581 0.458790
vn  0.342812 0.869330 0.356012
vn  -0.342812 -0.869330 -0.356012
vn  -0.182596 -0.869581 -0.458790
vn  0.000000 -1.000000 0.000000
vn  0.000000 -0.863521 -0.504312
vn  -0.441591 -0.876782 -0.190396
vn  0.182596 -0.869581 -0.458790
vn  -0.483986 -0.875076 0.000000
vn  0.342812 -0.869330 -0.356012
vn  -0.441591 -0.876782 0.190396
vn  0.441591 -0.876782 -0.190396
vn  -0.342812 -0.869330 0.356012
vn  0.483986 -0.875076 0.000000
vn  -0.182596 -0.869581 0.458790
vn  0.441591 -0.876782 0.190396
vn  0.000000 -0.863521 0.504312
vn  0.342812 -0.869330 0.356012
vn  0.182596 -0.869581 0.458790

g Mesh_0_0
usemtl Mesh_0_0
f  1/1/1 2/2/2 3/3/3
f  3/3/3 4/4/4 1/1/1
f  4/4/4 3/3/3 5/5/5
f  5/5/5 6/6/6 4/4/4
f  6/6/6 5/5/5 7/7/7
f  8/8/8 7/7/7 5/5/5
f  9/9/9 7/7/7 8/8/8
f  7/7/7 10/10/10 6/6/6
f  10/10/10 11/11/11 6/6/6
f  10/10/10 12/12/12 11/11/11
f  13/13/13 7/7/7 9/9/9
f  9/9/9 14/14/14 13/13/13
f  12/12/12 10/10/10 15/15/15
f  15/15/15 16/16/16 12/12/12
f  10/10/10 7/7/7 17/17/17
f  15/15/15 10/10/10 17/17/17
f  7/7/7 18/18/18 17/17/17
f  18/18/18 7/7/7 13/13/13
f  17/17/17 19/19/19 15/15/15
f  19/19/19 17/17/17 18/18/18
f  15/15/15 20/20/20 16/16/16
f  20/20/20 15/15/15 19/19/19
f  16/16/16 20/20/20 21/21/21
f  19/19/19 18/18/18 22/22/22
f  13/13/13 22/22/22 18/18/18
f  19/19/19 22/22/22 23/23/23
f  22/22/22 13/13/13 24/24/24
f  24/24/24 23/23/23 22/22/22
f  24/24/24 13/13/13 14/14/14
f  14/14/14 25/25/25 24/24/24
f  23/23/23 26/26/26 19/19/19
f  19/19/19 26/26/26 20/20/20
f  23/23/23 24/24/24 27/27/27
f  26/26/26 23/23/23 27/27/27
f  24/24/24 25/25/25 28/28/28
f  24/24/24 28/28/28 27/27/27
f  25/25/25 29/29/29 28/28/28
f  28/28/28 29/29/29 30/30/30
f  27/27/27 31/31/31 26/26/26
f  20/20/20 26/26/26 31/31/31
f  27/27/27 28/28/28 32/32/32
f  31/31/31 27/27/27 32/32/32
f  28/28/28 30/30/30 33/33/33
f  28/28/28 33/33/33 32/32/32
f  33/33/33 30/30/30 34/34/34
f  32/32/32 35/35/35 31/31/31
f  34/34/34 36/36/36 33/33/33
f  36/36/36 34/34/34 37/37/37
f  33/33/33 38/38/38 32/32/32
f  33/33/33 36/36/36 38/38/38
f  32/32/32 38/38/38 35/35/35
f  36/36/36 37/37/37 39/39/39
f  39/39/39 37/37/37 40/40/40
f  36/36/36 41/41/41 38/38/38
f  36/36/36 39/39/39 41/41/41
f  39/39/39 40/40/40 42/42/42
f  41/41/41 43/43/43 38/38/38
f  43/43/43 41/41/41 39/39/39
f  38/38/38 43/43/43 44/44/44
f  38/38/38 44/44/44 35/35/35
f  39/39/39 42/42/42 45/45/45
f  35/35/35 44/44/44 46/46/46
f  45/45/45 42/42/42 47/47/47
f  42/42/42 48/48/48 47/47/47
f  47/47/47 48/48/48 49/49/49
f  49/49/49 50/50/50 47/47/47
f  45/45/45 51/51/51 39/39/39
f  39/39/39 51/51/51 43/43/43
f  51/51/51 45/45/45 52/52/52
f  53/53/53 51/51/51 52/52/52
f  43/43/43 51/51/51 54/54/54
f  54/54/54 51/51/51 53/53/53
f  43/43/43 54/54/54 44/44/44
f  53/53/53 55/55/55 54/54/54
f  44/44/44 54/54/54 46/46/46
f  46/46/46 54/54/54 55/55/55
f  55/55/55 56/56/56 46/46/46
f  57/57/57 46/46/46 56/56/56
f  35/35/35 46/46/46 57/57/57
f  56/56/56 58/58/58 57/57/57
f  57/57/57 31/31/31 35/35/35
f  57/57/57 58/58/58 21/21/21
f  31/31/31 57/57/57 20/20/20
f  21/21/21 20/20/20 57/57/57
f  59/59/59 60/60/60 61/61/61
f  61/61/61 62/62/62 59/59/59
f  63/63/63 59/59/59 62/62/62
f  62/62/62 64/64/64 63/63/63
f  63/63/63 64/64/64 65/65/65
f  65/65/65 66/66/66 63/63/63
f  66/66/66 65/65/65 67/67/67
f  67/67/67 68/68/68 66/66/66
f  68/68/68 67/67/67 69/69/69
f  69/69/69 70/70/70 68/68/68
f  71/71/71 70/70/70 69/69/69
f  69/69/69 72/72/72 71/71/71
f  73/73/73 74/74/74 75/75/75
f  75/75/75 76/76/76 73/73/73
f  73/73/73 76/76/76 77/77/77
f  77/77/77 78/78/78 73/73/73
f  79/79/79 78/78/78 77/77/77
f  77/77/77 80/80/80 79/79/79
f  79/79/79 80/80/80 81/81/81
f  81/81/81 82/82/82 79/79/79
f  83/83/83 82/82/82 81/81/81
f  81/81/81 84/84/84 83/83/83
f  83/83/83 84/84/84 85/85/85
f  85/85/85 86/86/86 83/83/83
f  87/87/87 86/86/86 85/85/85
f  85/85/85 88/88/88 87/87/87
f  87/87/87 88/88/88 89/89/89
f  89/89/89 90/90/90 87/87/87
f  91/91/91 90/90/90 89/89/89
f  89/89/89 92/92/92 91/91/91
f  91/91/91 92/92/92 93/93/93
f  93/93/93 94/94/94 91/91/91
f  95/95/95 94/94/94 93/93/93
f  93/93/93 96/96/96 95/95/95
f  95/95/95 96/96/96 97/97/97
f  97/97/97 98/98/98 95/95/95
f  99/99/99 98/98/98 97/97/97
f  97/97/97 100/100/100 99/99/99
f  99/99/99 100/100/100 101/101/101
f  101/101/101 102/102/102 99/99/99
f  103/103/103 102/102/102 101/101/101
f  101/101/101 104/104/104 103/103/103
f  103/103/103 104/104/104 105/105/105
f  105/105/105 106/106/106 103/103/103
f  107/107/107 108/108/108 109/109/109
f  107/107/107 109/109/109 110/110/110
f  108/108/108 107/107/107 111/111/111
f  107/107/107 110/110/110 112/112/112
f  111/111/111 107/107/107 113/113/113
f  107/107/107 112/112/112 114/114/114
f  113/113/113 107/107/107 115/115/115
f  107/107/107 114/114/114 116/116/116
f  115/115/115 107/107/107 117/117/117
f  107/107/107 116/116/116 118/118/118
f  117/117/117 107/107/107 119/119/119
f  107/107/107 118/118/118 120/120/120
f  119/119/119 107/107/107 121/121/121
f  107/107/107 120/120/120 122/122/122
f  121/121/121 107/107/107 123/123/123
f  107/107/107 122/122/122 123/123/123
f  124/124/124 125/125/125 126/126/126
f  125/125/125 127/127/127 126/126/126
f  124/124/124 126/126/126 128/128/128
f  127/127/127 129/129/129 126/126/126
f  128/128/128 126/126/126 130/130/130
f  129/129/129 131/131/131 126/126/126
f  130/130/130 126/126/126 132/132/132
f  131/131/131 133/133/133 126/126/126
f  132/132/132 126/126/126 134/134/134
f  133/133/133 135/135/135 126/126/126
f  134/134/134 126/126/126 136/136/136
f  135/135/135 137/137/137 126/126/126
f  136/136/136 126/126/126 138/138/138
f  137/137/137 139/139/139 126/126/126
f  138/138/138 126/126/126 140/140/140
f  139/139/139 140/140/140 126/126/126

g
