# Noesis .obj export.
#
mtllib unused.mtl
g
v  22.710125 3.526352 -0.269071
v  25.779701 3.526357 1.974823
v  25.680784 -3.094118 1.741176
v  22.710125 -3.094313 -0.269071
v  8.720788 3.526484 -3.173809
v  8.513514 -3.562110 -3.210499
v  5.120175 4.473199 -3.749805
v  5.050247 -4.179871 -3.442355
v  -1.911016 -3.257705 -2.297673
v  -1.910989 3.526531 -2.297708
v  24.728302 -3.094340 5.360000
v  25.680784 -3.094118 1.741176
v  25.779701 3.526357 1.974823
v  24.754347 3.526833 5.367347
v  24.533333 -2.328090 6.100375
v  24.533333 2.761049 6.100375
v  8.270065 2.760979 3.527511
v  24.754347 3.526833 5.367347
v  22.710125 3.526352 -0.269071
v  25.779701 3.526357 1.974823
v  8.359530 3.526665 2.785149
v  8.720788 3.526484 -3.173809
v  8.343010 -2.789661 3.370257
v  4.903322 4.473212 2.566896
v  5.120175 4.473199 -3.749805
v  -1.910989 3.526531 -2.297708
v  4.919219 3.707808 3.358258
v  -1.910989 3.526531 3.385857
v  -1.426254 2.760770 4.151672
v  -1.426254 -2.491890 4.151672
v  -1.910989 3.526531 -2.297708
v  -1.911016 -3.257705 -2.297673
v  -1.911026 -3.257725 3.385863
v  4.856952 -3.414616 3.549066
v  4.914354 -4.179991 2.801560
v  -1.911016 -3.257705 -2.297673
v  5.050247 -4.179871 -3.442355
v  8.322580 -3.562103 2.576073
v  8.513514 -3.562110 -3.210499
v  24.728302 -3.094340 5.360000
v  22.710125 -3.094313 -0.269071
v  25.680784 -3.094118 1.741176

vt  0.910156 0.029388 0.000000
vt  0.953125 0.029388 0.000000
vt  0.951660 0.142090 0.000000
vt  0.910156 0.142090 0.000000
vt  0.713867 0.029388 0.000000
vt  0.713867 0.142090 0.000000
vt  0.663086 0.029388 0.000000
vt  0.663086 0.142090 0.000000
vt  0.564453 0.142090 0.000000
vt  0.564453 0.029388 0.000000
vt  0.860840 0.791992 0.000000
vt  0.860840 0.859863 0.000000
vt  0.751465 0.859863 0.000000
vt  0.751465 0.791992 0.000000
vt  0.860840 0.778320 0.000000
vt  0.751465 0.778320 0.000000
vt  0.751465 0.482666 0.000000
vt  0.732910 0.782227 0.000000
vt  0.633789 0.744141 0.000000
vt  0.684082 0.801758 0.000000
vt  0.732910 0.482666 0.000000
vt  0.633789 0.482666 0.000000
vt  0.860840 0.482666 0.000000
vt  0.732910 0.421631 0.000000
vt  0.633789 0.421631 0.000000
vt  0.633789 0.283936 0.000000
vt  0.751465 0.421631 0.000000
vt  0.732910 0.283936 0.000000
vt  0.751465 0.313232 0.000000
vt  0.860840 0.313232 0.000000
vt  0.732910 0.177612 0.000000
vt  0.881348 0.177490 0.000000
vt  0.881348 0.283691 0.000000
vt  0.860840 0.421631 0.000000
vt  0.881348 0.421631 0.000000
vt  0.986328 0.283691 0.000000
vt  0.986328 0.421631 0.000000
vt  0.881348 0.482666 0.000000
vt  0.986328 0.482666 0.000000
vt  0.881348 0.781738 0.000000
vt  0.986328 0.744141 0.000000
vt  0.952637 0.801758 0.000000

vn  0.400610 0.006900 -0.916223
vn  0.589983 0.019599 -0.807177
vn  0.570305 0.006500 -0.821407
vn  0.387404 -0.000100 -0.921910
vn  0.179299 0.000000 -0.983795
vn  0.144205 -0.015100 -0.989433
vn  -0.032399 -0.014400 -0.999371
vn  -0.049802 -0.035101 -0.998142
vn  -0.182293 -0.018899 -0.983063
vn  -0.202305 0.000000 -0.979323
vn  0.553805 -0.711506 0.432504
vn  0.600407 -0.783910 0.158102
vn  0.620323 0.763529 0.179507
vn  0.543901 0.711502 0.444901
vn  0.467421 -0.290513 0.834937
vn  0.452192 0.290795 0.843185
vn  -0.054499 0.337097 0.939891
vn  0.543901 0.711502 0.444901
vn  0.000000 1.000000 0.000000
vn  0.620323 0.763529 0.179507
vn  0.085302 0.914924 0.394510
vn  0.139206 0.990245 0.006000
vn  -0.026101 -0.387209 0.921622
vn  0.064003 0.937038 0.343314
vn  0.068603 0.997641 0.002400
vn  -0.718119 0.695919 -0.001500
vn  0.064300 0.440398 0.895497
vn  -0.674200 0.634900 0.377300
vn  -0.367102 0.269101 0.890405
vn  -0.376505 -0.261603 0.888711
vn  -0.718119 0.695919 -0.001500
vn  -0.723805 -0.690004 -0.000900
vn  -0.677915 -0.633714 0.372608
vn  0.073201 -0.399707 0.913716
vn  0.046998 -0.926163 0.374185
vn  -0.723805 -0.690004 -0.000900
vn  0.030001 -0.999549 0.001300
vn  0.082000 -0.929497 0.359599
vn  0.109103 -0.994024 0.003600
vn  0.553805 -0.711506 0.432504
vn  0.023700 -0.999697 -0.006600
vn  0.600407 -0.783910 0.158102

g Mesh_0_0
usemtl Mesh_0_0
f  1/1/1 2/2/2 3/3/3
f  3/3/3 4/4/4 1/1/1
f  5/5/5 1/1/1 4/4/4
f  4/4/4 6/6/6 5/5/5
f  7/7/7 5/5/5 6/6/6
f  6/6/6 8/8/8 7/7/7
f  7/7/7 8/8/8 9/9/9
f  9/9/9 10/10/10 7/7/7
f  11/11/11 12/12/12 13/13/13
f  13/13/13 14/14/14 11/11/11
f  15/15/15 11/11/11 14/14/14
f  14/14/14 16/16/16 15/15/15
f  15/15/15 16/16/16 17/17/17
f  17/17/17 16/16/16 18/18/18
f  19/19/19 18/18/18 20/20/20
f  21/21/21 18/18/18 19/19/19
f  18/18/18 21/21/21 17/17/17
f  19/19/19 22/22/22 21/21/21
f  17/17/17 23/23/23 15/15/15
f  21/21/21 22/22/22 24/24/24
f  22/22/22 25/25/25 24/24/24
f  24/24/24 25/25/25 26/26/26
f  27/27/27 17/17/17 21/21/21
f  21/21/21 24/24/24 27/27/27
f  17/17/17 27/27/27 23/23/23
f  24/24/24 26/26/26 28/28/28
f  27/27/27 24/24/24 29/29/29
f  24/24/24 28/28/28 29/29/29
f  27/27/27 29/29/29 30/30/30
f  30/30/30 29/29/29 28/28/28
f  28/28/28 31/31/31 32/32/32
f  32/32/32 33/33/33 28/28/28
f  28/28/28 33/33/33 30/30/30
f  30/30/30 34/34/34 27/27/27
f  34/34/34 30/30/30 33/33/33
f  27/27/27 34/34/34 23/23/23
f  33/33/33 35/35/35 34/34/34
f  35/35/35 33/33/33 36/36/36
f  36/36/36 37/37/37 35/35/35
f  38/38/38 23/23/23 34/34/34
f  34/34/34 35/35/35 38/38/38
f  38/38/38 35/35/35 37/37/37
f  23/23/23 38/38/38 15/15/15
f  37/37/37 39/39/39 38/38/38
f  15/15/15 38/38/38 40/40/40
f  38/38/38 39/39/39 41/41/41
f  41/41/41 40/40/40 38/38/38
f  40/40/40 41/41/41 42/42/42

g
