# Noesis .obj export.
#
mtllib unused.mtl
g
v  -0.805850 -6.519286 -8.480455
v  -0.041152 -7.146091 -8.425669
v  -0.041186 -0.751836 -8.594701
v  -2.423067 -4.087850 -8.416132
v  -4.055925 -0.410395 -6.811643
v  -2.404542 3.497879 -8.177190
v  -4.486706 -0.149756 -8.887412
v  -2.423067 -4.087850 -8.416132
v  -0.811370 6.244433 -8.584229
v  -0.041124 6.995315 -8.528371
v  -2.627273 3.997879 -9.926970
v  -2.622033 -4.388618 -9.968959
v  -0.805850 -6.519286 -8.480455
v  -0.041152 -7.146091 -8.425669
v  -0.041016 -7.625650 -10.028466
v  -0.890289 -6.975722 -10.068531
v  -0.040956 -5.255404 -18.634811
v  -3.269550 -0.246445 -19.405806
v  -1.924110 -3.047869 -19.117922
v  -0.683276 -4.762314 -18.764605
v  -0.039817 -0.255875 -21.383812
v  -2.008187 2.323977 -19.151463
v  -0.701143 4.342857 -18.716000
v  -0.890062 6.944410 -10.174224
v  -0.040816 4.929138 -18.565193
v  -0.040956 7.665219 -10.165064
v  0.807764 6.944410 -10.174224
v  0.729107 6.244433 -8.584229
v  -0.041186 -0.751836 -8.594701
v  0.618857 4.342857 -18.716000
v  2.545151 3.997879 -9.926970
v  0.723531 -6.519027 -8.480455
v  -0.041152 -7.146091 -8.425669
v  2.340868 -4.087850 -8.416132
v  3.973597 -0.410395 -6.811643
v  2.322186 3.497879 -8.177190
v  4.404503 -0.149756 -8.887412
v  2.340868 -4.087850 -8.416132
v  1.926316 2.323392 -19.151463
v  3.187204 -0.247038 -19.405806
v  2.539562 -4.388618 -9.968959
v  0.723531 -6.519027 -8.480455
v  1.841798 -3.047869 -19.117922
v  0.601375 -4.762314 -18.764605
v  -0.040956 -5.255404 -18.634811
v  0.807929 -6.975722 -10.068531
v  -0.041016 -7.625650 -10.028466
v  -0.041152 -7.146091 -8.425669
v  -0.805701 -7.782423 0.182898
v  -0.041092 -8.521716 0.237451
v  -0.041108 -0.980163 0.068514
v  -2.422979 -4.914654 0.247188
v  -4.055830 -0.577371 1.851572
v  -2.404504 4.031996 0.486217
v  -4.486650 -0.270163 -0.224018
v  -2.422979 -4.914654 0.247188
v  -0.811363 7.271638 0.079006
v  -0.041086 8.157371 0.134960
v  -2.627451 4.621809 -1.263648
v  -2.621904 -5.269379 -1.305565
v  -0.805701 -7.782423 0.182898
v  -0.041092 -8.521716 0.237451
v  -0.041054 -9.087101 -1.365049
v  -0.890272 -8.320803 -1.405131
v  -0.041181 -6.340528 -9.305027
v  -3.461396 -0.247309 -10.076284
v  -2.035853 -3.654915 -9.788467
v  -0.721774 -5.740783 -9.434908
v  -0.039873 -0.258228 -20.727848
v  -2.125300 2.879796 -9.821643
v  -0.740115 5.336103 -9.386247
v  -0.890015 8.096886 -1.510875
v  -0.040880 6.049056 -9.235692
v  -0.040961 8.947296 -1.501912
v  0.807711 8.096886 -1.510875
v  0.729250 7.271638 0.079006
v  -0.041108 -0.980163 0.068514
v  0.658453 5.335530 -9.386247
v  2.545211 4.621809 -1.263648
v  0.723515 -7.782423 0.182898
v  -0.041092 -8.521716 0.237451
v  2.340783 -4.914654 0.247188
v  3.973681 -0.436143 1.594057
v  2.322299 4.031996 0.486217
v  4.404490 -0.270198 -0.224089
v  2.340783 -4.914654 0.247188
v  2.043465 2.879197 -9.821643
v  3.379268 -0.247616 -10.076284
v  2.539723 -5.269379 -1.305565
v  0.723515 -7.782423 0.182898
v  1.953690 -3.654915 -9.788467
v  0.639401 -5.740783 -9.434908
v  -0.041181 -6.340528 -9.305027
v  0.807976 -8.320803 -1.405131
v  -0.041054 -9.087101 -1.365049
v  -0.041092 -8.521716 0.237451

vt  0.047150 0.197998 0.000000
vt  0.040497 0.198853 0.000000
vt  0.058014 0.165161 0.000000
vt  0.064209 0.190308 0.000000
vt  0.088013 0.176025 0.000000
vt  0.083313 0.147949 0.000000
vt  0.100647 0.168335 0.000000
vt  0.111328 0.193481 0.000000
vt  0.077026 0.127930 0.000000
vt  0.073242 0.119873 0.000000
vt  0.094299 0.141113 0.000000
vt  0.121582 0.188599 0.000000
vt  0.122375 0.209106 0.000000
vt  0.125610 0.214966 0.000000
vt  0.136597 0.210449 0.000000
vt  0.132935 0.204468 0.000000
vt  0.182617 0.171875 0.000000
vt  0.164429 0.135620 0.000000
vt  0.173828 0.153687 0.000000
vt  0.179932 0.166748 0.000000
vt  0.223511 0.078125 0.000000
vt  0.154175 0.119690 0.000000
vt  0.144409 0.106445 0.000000
vt  0.086975 0.122009 0.000000
vt  0.140991 0.101074 0.000000
vt  0.084839 0.116699 0.000000
vt  0.083740 0.111023 0.000000
vt  0.072083 0.111145 0.000000
vt  0.035828 0.089233 0.000000
vt  0.140991 0.094727 0.000000
vt  0.079712 0.091064 0.000000
vt  0.008804 0.066895 0.000000
vt  0.002672 0.069519 0.000000
vt  0.027512 0.064636 0.000000
vt  0.055450 0.064636 0.000000
vt  0.066589 0.090881 0.000000
vt  0.070313 0.064636 0.000000
vt  0.065735 0.037750 0.000000
vt  0.142090 0.078430 0.000000
vt  0.142212 0.059662 0.000000
vt  0.077148 0.036652 0.000000
vt  0.066711 0.018814 0.000000
vt  0.140503 0.039429 0.000000
vt  0.138428 0.025238 0.000000
vt  0.137939 0.019516 0.000000
vt  0.078247 0.017334 0.000000
vt  0.078125 0.010330 0.000000
vt  0.066284 0.012161 0.000000
vt  0.047150 0.197998 0.000000
vt  0.040497 0.198853 0.000000
vt  0.058014 0.165161 0.000000
vt  0.064209 0.190308 0.000000
vt  0.088013 0.176025 0.000000
vt  0.083313 0.147949 0.000000
vt  0.100647 0.168335 0.000000
vt  0.111328 0.193481 0.000000
vt  0.077026 0.127930 0.000000
vt  0.073242 0.119873 0.000000
vt  0.094299 0.141113 0.000000
vt  0.121582 0.188599 0.000000
vt  0.122375 0.209106 0.000000
vt  0.125610 0.214966 0.000000
vt  0.136597 0.210449 0.000000
vt  0.132935 0.204468 0.000000
vt  0.182617 0.171875 0.000000
vt  0.164429 0.135620 0.000000
vt  0.173828 0.153687 0.000000
vt  0.179932 0.166748 0.000000
vt  0.223511 0.078125 0.000000
vt  0.154175 0.119690 0.000000
vt  0.144409 0.106445 0.000000
vt  0.086975 0.122009 0.000000
vt  0.140991 0.101074 0.000000
vt  0.084839 0.116699 0.000000
vt  0.083740 0.111023 0.000000
vt  0.072083 0.111145 0.000000
vt  0.035828 0.089233 0.000000
vt  0.140991 0.094727 0.000000
vt  0.079712 0.091064 0.000000
vt  0.008804 0.066895 0.000000
vt  0.002672 0.069519 0.000000
vt  0.027512 0.064636 0.000000
vt  0.055450 0.064636 0.000000
vt  0.066589 0.090881 0.000000
vt  0.070313 0.064636 0.000000
vt  0.065735 0.037750 0.000000
vt  0.142090 0.078430 0.000000
vt  0.142212 0.059662 0.000000
vt  0.077148 0.036652 0.000000
vt  0.066711 0.018814 0.000000
vt  0.140503 0.039429 0.000000
vt  0.138428 0.025238 0.000000
vt  0.137939 0.019516 0.000000
vt  0.078247 0.017334 0.000000
vt  0.078125 0.010330 0.000000
vt  0.066284 0.012161 0.000000

vn  -0.511048 -0.427917 0.745464
vn  0.000007 -0.702263 0.711918
vn  0.000000 -0.026986 0.999636
vn  -0.518656 -0.403791 0.753623
vn  -0.515669 -0.044809 0.855615
vn  -0.434306 0.384718 0.814475
vn  -0.997287 0.020655 0.070657
vn  -0.518656 -0.403791 0.753623
vn  -0.514204 0.394984 0.761303
vn  0.000009 0.681826 0.731515
vn  -0.878434 0.475725 0.045170
vn  -0.870888 -0.490644 0.028690
vn  -0.511048 -0.427917 0.745464
vn  0.000007 -0.702263 0.711918
vn  0.000000 -0.999722 0.023567
vn  -0.715624 -0.698261 0.017691
vn  -0.000006 -0.849627 -0.527384
vn  -0.856306 0.001246 -0.516467
vn  -0.691635 -0.492633 -0.528160
vn  -0.529739 -0.638294 -0.558532
vn  0.000217 0.000542 -1.000000
vn  -0.697749 0.481988 -0.529938
vn  -0.568767 0.603867 -0.558434
vn  -0.747295 0.662904 0.045905
vn  0.000120 0.839014 -0.544109
vn  -0.000001 0.998728 0.050423
vn  0.747295 0.662904 0.045917
vn  0.514210 0.394979 0.761302
vn  0.000000 -0.026986 0.999636
vn  0.568901 0.603829 -0.558339
vn  0.878434 0.475724 0.045176
vn  0.511055 -0.427914 0.745461
vn  0.000007 -0.702263 0.711918
vn  0.518654 -0.403792 0.753624
vn  0.515668 -0.044810 0.855616
vn  0.434304 0.384720 0.814476
vn  0.997286 0.020657 0.070664
vn  0.518654 -0.403792 0.753624
vn  0.697848 0.482006 -0.529791
vn  0.856392 0.001189 -0.516325
vn  0.869822 -0.492728 0.025079
vn  0.511055 -0.427914 0.745461
vn  0.691509 -0.496303 -0.524880
vn  0.536370 -0.637340 -0.553268
vn  -0.000006 -0.849627 -0.527384
vn  0.717314 -0.696586 0.015084
vn  0.000000 -0.999722 0.023567
vn  0.000007 -0.702263 0.711918
vn  -0.540509 -0.382158 0.749537
vn  0.000007 -0.696177 0.717870
vn  0.019259 -0.026581 0.999461
vn  -0.542133 -0.344092 0.766611
vn  -0.510801 -0.043989 0.858573
vn  -0.456310 0.331409 0.825802
vn  -0.997118 0.019906 0.073213
vn  -0.542133 -0.344092 0.766611
vn  -0.539937 0.346064 0.767273
vn  0.000009 0.668606 0.743617
vn  -0.905353 0.421307 0.053255
vn  -0.899859 -0.435047 0.031438
vn  -0.540509 -0.382158 0.749537
vn  0.000007 -0.696177 0.717870
vn  0.000000 -0.999851 0.017254
vn  -0.763351 -0.645849 0.013216
vn  -0.000010 -0.925572 -0.378572
vn  -0.975700 0.003820 -0.219079
vn  -0.852973 -0.468783 -0.229522
vn  -0.700660 -0.651798 -0.290232
vn  0.000119 -0.001406 -0.999999
vn  -0.862989 0.454969 -0.219668
vn  -0.746937 0.605391 -0.274931
vn  -0.791845 0.608403 0.053174
vn  0.000123 0.918042 -0.396483
vn  -0.000001 0.998331 0.057751
vn  0.791845 0.608402 0.053187
vn  0.539943 0.346059 0.767271
vn  0.019259 -0.026581 0.999461
vn  0.747051 0.605305 -0.274812
vn  0.905353 0.421306 0.053261
vn  0.540515 -0.382154 0.749534
vn  0.000007 -0.696177 0.717870
vn  0.544056 -0.332248 0.770464
vn  0.528133 -0.024542 0.848807
vn  0.457644 0.323310 0.828271
vn  0.996355 0.014275 0.084101
vn  0.544056 -0.332248 0.770464
vn  0.863028 0.454948 -0.219555
vn  0.975726 0.003762 -0.218961
vn  0.898562 -0.438061 0.026249
vn  0.540515 -0.382154 0.749534
vn  0.852063 -0.472512 -0.225214
vn  0.707132 -0.648667 -0.281417
vn  -0.000010 -0.925572 -0.378572
vn  0.765396 -0.643481 0.010112
vn  0.000000 -0.999851 0.017254
vn  0.000007 -0.696177 0.717870

g Mesh_0_0
usemtl Mesh_0_0
f  1/1/1 2/2/2 3/3/3
f  1/1/1 3/3/3 4/4/4
f  5/5/5 4/4/4 3/3/3
f  5/5/5 3/3/3 6/6/6
f  7/7/7 5/5/5 6/6/6
f  8/8/8 5/5/5 7/7/7
f  6/6/6 3/3/3 9/9/9
f  3/3/3 10/10/10 9/9/9
f  6/6/6 11/11/11 7/7/7
f  11/11/11 6/6/6 9/9/9
f  7/7/7 12/12/12 8/8/8
f  13/13/13 8/8/8 12/12/12
f  14/14/14 13/13/13 15/15/15
f  13/13/13 16/16/16 15/15/15
f  12/12/12 16/16/16 13/13/13
f  15/15/15 16/16/16 17/17/17
f  12/12/12 7/7/7 18/18/18
f  18/18/18 7/7/7 11/11/11
f  12/12/12 19/19/19 16/16/16
f  18/18/18 19/19/19 12/12/12
f  16/16/16 20/20/20 17/17/17
f  19/19/19 20/20/20 16/16/16
f  17/17/17 20/20/20 21/21/21
f  20/20/20 19/19/19 21/21/21
f  19/19/19 18/18/18 21/21/21
f  11/11/11 22/22/22 18/18/18
f  18/18/18 22/22/22 21/21/21
f  22/22/22 11/11/11 23/23/23
f  22/22/22 23/23/23 21/21/21
f  11/11/11 24/24/24 23/23/23
f  9/9/9 24/24/24 11/11/11
f  23/23/23 24/24/24 25/25/25
f  23/23/23 25/25/25 21/21/21
f  24/24/24 9/9/9 26/26/26
f  24/24/24 26/26/26 25/25/25
f  9/9/9 10/10/10 26/26/26
f  25/25/25 26/26/26 27/27/27
f  26/26/26 10/10/10 28/28/28
f  28/28/28 27/27/27 26/26/26
f  28/28/28 10/10/10 29/29/29
f  27/27/27 30/30/30 25/25/25
f  25/25/25 30/30/30 21/21/21
f  27/27/27 28/28/28 31/31/31
f  30/30/30 27/27/27 31/31/31
f  32/32/32 29/29/29 33/33/33
f  29/29/29 32/32/32 34/34/34
f  35/35/35 29/29/29 34/34/34
f  36/36/36 28/28/28 29/29/29
f  35/35/35 36/36/36 29/29/29
f  28/28/28 36/36/36 31/31/31
f  36/36/36 35/35/35 37/37/37
f  37/37/37 31/31/31 36/36/36
f  37/37/37 35/35/35 38/38/38
f  31/31/31 39/39/39 30/30/30
f  21/21/21 30/30/30 39/39/39
f  39/39/39 31/31/31 40/40/40
f  31/31/31 37/37/37 40/40/40
f  39/39/39 40/40/40 21/21/21
f  37/37/37 38/38/38 41/41/41
f  40/40/40 37/37/37 41/41/41
f  41/41/41 38/38/38 42/42/42
f  40/40/40 43/43/43 21/21/21
f  41/41/41 43/43/43 40/40/40
f  21/21/21 43/43/43 44/44/44
f  44/44/44 43/43/43 41/41/41
f  21/21/21 44/44/44 45/45/45
f  41/41/41 46/46/46 44/44/44
f  45/45/45 44/44/44 46/46/46
f  46/46/46 41/41/41 42/42/42
f  46/46/46 47/47/47 45/45/45
f  47/47/47 46/46/46 42/42/42
f  42/42/42 48/48/48 47/47/47
f  49/49/49 50/50/50 51/51/51
f  49/49/49 51/51/51 52/52/52
f  53/53/53 52/52/52 51/51/51
f  53/53/53 51/51/51 54/54/54
f  55/55/55 53/53/53 54/54/54
f  56/56/56 53/53/53 55/55/55
f  54/54/54 51/51/51 57/57/57
f  51/51/51 58/58/58 57/57/57
f  54/54/54 59/59/59 55/55/55
f  59/59/59 54/54/54 57/57/57
f  55/55/55 60/60/60 56/56/56
f  61/61/61 56/56/56 60/60/60
f  62/62/62 61/61/61 63/63/63
f  61/61/61 64/64/64 63/63/63
f  60/60/60 64/64/64 61/61/61
f  63/63/63 64/64/64 65/65/65
f  60/60/60 55/55/55 66/66/66
f  66/66/66 55/55/55 59/59/59
f  60/60/60 67/67/67 64/64/64
f  66/66/66 67/67/67 60/60/60
f  64/64/64 68/68/68 65/65/65
f  67/67/67 68/68/68 64/64/64
f  65/65/65 68/68/68 69/69/69
f  68/68/68 67/67/67 69/69/69
f  67/67/67 66/66/66 69/69/69
f  59/59/59 70/70/70 66/66/66
f  66/66/66 70/70/70 69/69/69
f  70/70/70 59/59/59 71/71/71
f  70/70/70 71/71/71 69/69/69
f  59/59/59 72/72/72 71/71/71
f  57/57/57 72/72/72 59/59/59
f  71/71/71 72/72/72 73/73/73
f  71/71/71 73/73/73 69/69/69
f  72/72/72 57/57/57 74/74/74
f  72/72/72 74/74/74 73/73/73
f  57/57/57 58/58/58 74/74/74
f  73/73/73 74/74/74 75/75/75
f  74/74/74 58/58/58 76/76/76
f  76/76/76 75/75/75 74/74/74
f  76/76/76 58/58/58 77/77/77
f  75/75/75 78/78/78 73/73/73
f  73/73/73 78/78/78 69/69/69
f  75/75/75 76/76/76 79/79/79
f  78/78/78 75/75/75 79/79/79
f  80/80/80 77/77/77 81/81/81
f  77/77/77 80/80/80 82/82/82
f  83/83/83 77/77/77 82/82/82
f  84/84/84 76/76/76 77/77/77
f  83/83/83 84/84/84 77/77/77
f  76/76/76 84/84/84 79/79/79
f  84/84/84 83/83/83 85/85/85
f  85/85/85 79/79/79 84/84/84
f  85/85/85 83/83/83 86/86/86
f  79/79/79 87/87/87 78/78/78
f  69/69/69 78/78/78 87/87/87
f  87/87/87 79/79/79 88/88/88
f  79/79/79 85/85/85 88/88/88
f  87/87/87 88/88/88 69/69/69
f  85/85/85 86/86/86 89/89/89
f  88/88/88 85/85/85 89/89/89
f  89/89/89 86/86/86 90/90/90
f  88/88/88 91/91/91 69/69/69
f  89/89/89 91/91/91 88/88/88
f  69/69/69 91/91/91 92/92/92
f  92/92/92 91/91/91 89/89/89
f  69/69/69 92/92/92 93/93/93
f  89/89/89 94/94/94 92/92/92
f  93/93/93 92/92/92 94/94/94
f  94/94/94 89/89/89 90/90/90
f  94/94/94 95/95/95 93/93/93
f  95/95/95 94/94/94 90/90/90
f  90/90/90 96/96/96 95/95/95

g
