# Noesis .obj export.
#
mtllib unused.mtl
g
v  -2.759276 3.223858 -3.349177
v  -2.759276 -3.190841 -3.349177
v  -3.255340 -2.780825 -2.892300
v  -3.255340 2.813612 -2.892300
v  -4.228416 -2.780746 1.837011
v  -4.228416 2.813653 1.837011
v  -3.070711 -2.780816 3.499680
v  -3.070711 2.813608 3.499680
v  -0.951540 -2.780762 4.782660
v  -0.951540 2.813604 4.782660
v  1.166911 -2.780727 4.805222
v  -0.904800 -3.190933 4.368533
v  -3.070711 -2.780816 3.499680
v  1.166911 2.813582 4.805222
v  -2.985392 -3.190884 3.091936
v  -4.228416 -2.780746 1.837011
v  -0.904800 3.223867 4.368533
v  -3.070711 2.813608 3.499680
v  -3.798076 -3.190912 1.672192
v  -3.255340 -2.780825 -2.892300
v  -2.759276 -3.190841 -3.349177
v  -0.034455 -3.190891 -4.325544
v  2.646727 -3.054176 -3.361789
v  1.185210 -3.190919 4.350106
v  3.140537 -3.190883 3.547423
v  3.150562 -2.780822 4.043687
v  9.079823 -3.277993 0.132483
v  7.875961 -2.262019 -5.989182
v  9.203933 -2.871629 0.625562
v  3.150562 2.813649 4.043687
v  14.511742 -3.339389 -4.051396
v  12.724660 -2.368544 -8.935923
v  14.716981 -2.935759 -3.629380
v  19.644871 -3.350930 -8.599280
v  17.361950 -2.701643 -12.014838
v  21.709080 -3.045726 -15.490391
v  19.925182 -2.948297 -8.271290
v  24.295252 -3.190653 -13.671365
v  26.299599 -2.841767 -19.581526
v  9.203933 2.904494 0.625562
v  28.241379 -2.864655 -18.252586
v  30.631432 -2.381665 -23.943872
v  14.716981 2.968554 -3.629380
v  31.923977 -2.454191 -23.034113
v  38.331383 -1.717799 -32.694378
v  38.630898 -1.283019 -32.216980
v  24.647102 -2.780286 -13.445448
v  32.250000 -2.031496 -22.683071
v  32.250000 2.063976 -22.683071
v  38.630898 1.314858 -32.216980
v  28.573298 -2.449389 -17.968586
v  28.573298 2.482548 -17.968586
v  31.924952 2.487329 -23.035088
v  38.331383 1.750585 -32.694378
v  30.531221 2.487418 -23.937559
v  28.242241 2.898276 -18.253448
v  26.147646 2.985635 -19.574621
v  24.647102 2.813394 -13.445448
v  24.296736 3.224036 -13.672849
v  21.510178 3.223900 -15.478004
v  19.925182 2.981143 -8.271290
v  19.645472 3.383923 -8.600480
v  17.194750 2.907087 -12.038845
v  12.601923 2.583462 -8.977693
v  14.512184 3.372175 -4.052282
v  7.799809 2.470840 -6.039038
v  9.080100 3.310976 0.132206
v  2.620475 3.223836 -3.398403
v  3.140537 3.223798 3.547423
v  1.185210 3.223845 4.350106
v  -0.034455 3.223762 -4.325544
v  -2.985832 3.223829 3.067001
v  -2.759276 3.223858 -3.349177
v  -4.228416 2.813653 1.837011
v  -3.798076 3.223832 1.672192
v  -3.255340 2.813612 -2.892300
v  -0.034455 -3.190891 -4.325544
v  -2.759276 -3.190841 -3.349177
v  -2.759276 3.223858 -3.349177
v  -0.034455 3.223762 -4.325544
v  2.646727 -3.054176 -3.361789
v  2.620475 3.223836 -3.398403
v  7.875961 -2.262019 -5.989182
v  7.799809 2.470840 -6.039038
v  12.601923 2.583462 -8.977693
v  12.724660 -2.368544 -8.935923
v  17.194750 2.907087 -12.038845
v  17.361950 -2.701643 -12.014838
v  21.510178 3.223900 -15.478004
v  21.709080 -3.045726 -15.490391
v  26.147646 2.985635 -19.574621
v  26.299599 -2.841767 -19.581526
v  30.531221 2.487418 -23.937559
v  30.631432 -2.381665 -23.943872
v  38.331383 -1.717799 -32.694378
v  38.331383 1.750585 -32.694378
v  38.630898 -1.283019 -32.216980
v  38.630898 1.314858 -32.216980

vt  0.126099 0.010193 0.000000
vt  0.244385 0.010193 0.000000
vt  0.244385 0.017899 0.000000
vt  0.126099 0.017899 0.000000
vt  0.244385 0.098450 0.000000
vt  0.126099 0.098450 0.000000
vt  0.244385 0.127197 0.000000
vt  0.126099 0.127197 0.000000
vt  0.244385 0.149780 0.000000
vt  0.126099 0.149780 0.000000
vt  0.229614 0.181396 0.000000
vt  0.257568 0.154785 0.000000
vt  0.289307 0.137207 0.000000
vt  0.140747 0.181396 0.000000
vt  0.292969 0.143066 0.000000
vt  0.319824 0.141602 0.000000
vt  0.112793 0.154785 0.000000
vt  0.081055 0.137207 0.000000
vt  0.317383 0.149048 0.000000
vt  0.363037 0.208374 0.000000
vt  0.363037 0.219849 0.000000
vt  0.346191 0.265625 0.000000
vt  0.308350 0.288574 0.000000
vt  0.243896 0.181396 0.000000
vt  0.236206 0.238647 0.000000
vt  0.223877 0.238647 0.000000
vt  0.236206 0.344482 0.000000
vt  0.295654 0.382080 0.000000
vt  0.223877 0.344482 0.000000
vt  0.148438 0.238647 0.000000
vt  0.236206 0.450195 0.000000
vt  0.282959 0.475342 0.000000
vt  0.223877 0.450195 0.000000
vt  0.236206 0.556152 0.000000
vt  0.270508 0.568359 0.000000
vt  0.258057 0.661621 0.000000
vt  0.223877 0.556152 0.000000
vt  0.236206 0.661621 0.000000
vt  0.252441 0.741699 0.000000
vt  0.148438 0.344482 0.000000
vt  0.236206 0.741699 0.000000
vt  0.247192 0.821289 0.000000
vt  0.148438 0.450195 0.000000
vt  0.236206 0.821289 0.000000
vt  0.236206 0.980957 0.000000
vt  0.223877 0.980957 0.000000
vt  0.223877 0.661621 0.000000
vt  0.223877 0.821289 0.000000
vt  0.148438 0.821289 0.000000
vt  0.148438 0.980957 0.000000
vt  0.223877 0.741699 0.000000
vt  0.148438 0.741699 0.000000
vt  0.135986 0.821289 0.000000
vt  0.135986 0.980957 0.000000
vt  0.122375 0.821289 0.000000
vt  0.135986 0.741699 0.000000
vt  0.115540 0.741699 0.000000
vt  0.148438 0.661621 0.000000
vt  0.135986 0.661621 0.000000
vt  0.108643 0.661621 0.000000
vt  0.148438 0.556152 0.000000
vt  0.135986 0.556152 0.000000
vt  0.096863 0.568359 0.000000
vt  0.085083 0.475342 0.000000
vt  0.135986 0.450195 0.000000
vt  0.073242 0.382080 0.000000
vt  0.135986 0.344482 0.000000
vt  0.061493 0.288574 0.000000
vt  0.135986 0.238647 0.000000
vt  0.126587 0.181396 0.000000
vt  0.024094 0.265625 0.000000
vt  0.077087 0.143188 0.000000
vt  0.007397 0.219849 0.000000
vt  0.050690 0.141602 0.000000
vt  0.053192 0.148926 0.000000
vt  0.007500 0.208374 0.000000
vt  0.014999 0.348145 0.000000
vt  0.014999 0.303955 0.000000
vt  0.051971 0.303955 0.000000
vt  0.051971 0.348145 0.000000
vt  0.014999 0.391113 0.000000
vt  0.051971 0.390625 0.000000
vt  0.014999 0.468750 0.000000
vt  0.051971 0.467773 0.000000
vt  0.051971 0.544434 0.000000
vt  0.014999 0.546387 0.000000
vt  0.051971 0.621582 0.000000
vt  0.014999 0.624023 0.000000
vt  0.051971 0.698242 0.000000
vt  0.014999 0.701660 0.000000
vt  0.051971 0.767578 0.000000
vt  0.014999 0.769531 0.000000
vt  0.051971 0.836426 0.000000
vt  0.014999 0.837891 0.000000
vt  0.014999 0.974121 0.000000
vt  0.051971 0.974121 0.000000
vt  0.014999 0.979004 0.000000
vt  0.051971 0.979004 0.000000

vn  -0.409281 0.867576 -0.282492
vn  -0.409281 -0.867576 -0.282492
vn  -0.860115 -0.300697 -0.412048
vn  -0.860115 0.300697 -0.412048
vn  -0.912557 -0.364383 0.185647
vn  -0.912104 0.365107 0.186450
vn  -0.631616 -0.340089 0.696707
vn  -0.629998 0.349503 0.693506
vn  -0.249469 -0.362701 0.897894
vn  -0.249469 0.362701 0.897894
vn  0.160295 -0.383288 0.909613
vn  -0.126200 -0.901688 0.413560
vn  -0.631616 -0.340089 0.696707
vn  0.160301 0.383203 0.909648
vn  -0.341910 -0.884138 0.318429
vn  -0.912557 -0.364383 0.185647
vn  -0.129156 0.900093 0.416114
vn  -0.629998 0.349503 0.693506
vn  -0.428414 -0.902286 0.048384
vn  -0.860115 -0.300697 -0.412048
vn  -0.409281 -0.867576 -0.282492
vn  0.026551 -0.999644 0.002637
vn  0.026661 -0.998478 -0.048272
vn  0.083018 -0.919505 0.384212
vn  0.158436 -0.931481 0.327478
vn  0.388489 -0.395909 0.832065
vn  0.184939 -0.951353 0.246424
vn  -0.045764 -0.986375 -0.158021
vn  0.497177 -0.414499 0.762237
vn  0.388590 0.395810 0.832065
vn  0.172696 -0.962323 0.210023
vn  -0.125151 -0.982277 -0.139534
vn  0.579796 -0.408604 0.704896
vn  0.211673 -0.952180 0.220335
vn  -0.141942 -0.985540 -0.092541
vn  -0.041404 -0.997155 -0.062984
vn  0.647331 -0.395677 0.651462
vn  0.291275 -0.932250 0.214637
vn  0.022834 -0.997864 -0.061206
vn  0.497177 0.414499 0.762237
vn  0.321438 -0.928136 0.187726
vn  0.004724 -0.996872 -0.078892
vn  0.579796 0.408604 0.704896
vn  0.318589 -0.935682 0.151660
vn  0.532576 -0.794181 0.292643
vn  0.763016 -0.438103 0.475260
vn  0.699375 -0.387996 0.600279
vn  0.758043 -0.398811 0.516063
vn  0.757513 0.399191 0.516546
vn  0.763016 0.438103 0.475260
vn  0.725313 -0.392518 0.565554
vn  0.725661 0.392795 0.564914
vn  0.334324 0.928010 0.164392
vn  0.533089 0.793691 0.293037
vn  0.039965 0.997751 -0.053803
vn  0.337253 0.919934 0.199952
vn  0.055923 0.997874 -0.033480
vn  0.699402 0.387911 0.600302
vn  0.306628 0.923976 0.228577
vn  -0.009366 0.999433 -0.032343
vn  0.647356 0.395592 0.651488
vn  0.225461 0.945234 0.236010
vn  -0.113009 0.991950 -0.057133
vn  -0.102786 0.988929 -0.107026
vn  0.182945 0.957230 0.224148
vn  -0.031275 0.991011 -0.130075
vn  0.190425 0.947298 0.257615
vn  0.013265 0.999244 -0.036539
vn  0.162397 0.927744 0.336033
vn  0.084144 0.916250 0.391670
vn  0.000000 1.000000 0.000000
vn  -0.335747 0.889864 0.308895
vn  -0.409281 0.867576 -0.282492
vn  -0.912104 0.365107 0.186450
vn  -0.428595 0.902107 0.050088
vn  -0.860115 0.300697 -0.412048
vn  -0.005053 0.000000 -0.999987
vn  -0.337384 0.000000 -0.941367
vn  -0.337384 0.000000 -0.941367
vn  -0.002853 -0.001600 -0.999995
vn  -0.036346 -0.004300 -0.999330
vn  -0.047140 -0.008200 -0.998855
vn  -0.485619 -0.015100 -0.874040
vn  -0.487910 -0.017100 -0.872726
vn  -0.537301 -0.019800 -0.843158
vn  -0.537369 -0.020199 -0.843105
vn  -0.589289 -0.021200 -0.807644
vn  -0.591274 -0.020000 -0.806223
vn  -0.643043 -0.019799 -0.765574
vn  -0.645130 -0.018100 -0.763858
vn  -0.684219 -0.017800 -0.729060
vn  -0.685938 -0.016201 -0.727480
vn  -0.727764 -0.013700 -0.685690
vn  -0.729118 -0.013999 -0.684245
vn  -0.272335 -0.003600 -0.962196
vn  -0.273130 0.000000 -0.961977
vn  0.847028 0.000000 -0.531549
vn  0.847028 0.000000 -0.531549

g Mesh_0_0
usemtl Mesh_0_0
f  1/1/1 2/2/2 3/3/3
f  3/3/3 4/4/4 1/1/1
f  4/4/4 3/3/3 5/5/5
f  5/5/5 6/6/6 4/4/4
f  6/6/6 5/5/5 7/7/7
f  7/7/7 8/8/8 6/6/6
f  8/8/8 7/7/7 9/9/9
f  9/9/9 10/10/10 8/8/8
f  10/10/10 9/9/9 11/11/11
f  11/11/11 9/9/9 12/12/12
f  12/12/12 9/9/9 13/13/13
f  11/11/11 14/14/14 10/10/10
f  13/13/13 15/15/15 12/12/12
f  15/15/15 13/13/13 16/16/16
f  17/17/17 10/10/10 14/14/14
f  18/18/18 10/10/10 17/17/17
f  16/16/16 19/19/19 15/15/15
f  19/19/19 16/16/16 20/20/20
f  20/20/20 21/21/21 19/19/19
f  15/15/15 19/19/19 21/21/21
f  21/21/21 22/22/22 15/15/15
f  22/22/22 12/12/12 15/15/15
f  12/12/12 22/22/22 23/23/23
f  23/23/23 24/24/24 12/12/12
f  12/12/12 24/24/24 11/11/11
f  23/23/23 25/25/25 24/24/24
f  11/11/11 24/24/24 26/26/26
f  24/24/24 25/25/25 26/26/26
f  27/27/27 25/25/25 23/23/23
f  23/23/23 28/28/28 27/27/27
f  25/25/25 29/29/29 26/26/26
f  25/25/25 27/27/27 29/29/29
f  26/26/26 30/30/30 11/11/11
f  30/30/30 26/26/26 29/29/29
f  11/11/11 30/30/30 14/14/14
f  31/31/31 27/27/27 28/28/28
f  28/28/28 32/32/32 31/31/31
f  27/27/27 33/33/33 29/29/29
f  27/27/27 31/31/31 33/33/33
f  34/34/34 31/31/31 32/32/32
f  32/32/32 35/35/35 34/34/34
f  34/34/34 35/35/35 36/36/36
f  31/31/31 34/34/34 37/37/37
f  37/37/37 33/33/33 31/31/31
f  34/34/34 36/36/36 38/38/38
f  37/37/37 34/34/34 38/38/38
f  38/38/38 36/36/36 39/39/39
f  40/40/40 29/29/29 33/33/33
f  29/29/29 40/40/40 30/30/30
f  39/39/39 41/41/41 38/38/38
f  41/41/41 39/39/39 42/42/42
f  33/33/33 43/43/43 40/40/40
f  43/43/43 33/33/33 37/37/37
f  42/42/42 44/44/44 41/41/41
f  45/45/45 44/44/44 42/42/42
f  44/44/44 45/45/45 46/46/46
f  38/38/38 47/47/47 37/37/37
f  47/47/47 38/38/38 41/41/41
f  46/46/46 48/48/48 44/44/44
f  41/41/41 44/44/44 48/48/48
f  48/48/48 46/46/46 49/49/49
f  46/46/46 50/50/50 49/49/49
f  48/48/48 51/51/51 41/41/41
f  41/41/41 51/51/51 47/47/47
f  48/48/48 49/49/49 52/52/52
f  52/52/52 51/51/51 48/48/48
f  49/49/49 50/50/50 53/53/53
f  52/52/52 49/49/49 53/53/53
f  50/50/50 54/54/54 53/53/53
f  53/53/53 54/54/54 55/55/55
f  56/56/56 53/53/53 55/55/55
f  53/53/53 56/56/56 52/52/52
f  55/55/55 57/57/57 56/56/56
f  52/52/52 58/58/58 51/51/51
f  58/58/58 52/52/52 56/56/56
f  51/51/51 58/58/58 47/47/47
f  56/56/56 57/57/57 59/59/59
f  56/56/56 59/59/59 58/58/58
f  57/57/57 60/60/60 59/59/59
f  58/58/58 61/61/61 47/47/47
f  61/61/61 58/58/58 59/59/59
f  47/47/47 61/61/61 37/37/37
f  37/37/37 61/61/61 43/43/43
f  62/62/62 59/59/59 60/60/60
f  59/59/59 62/62/62 61/61/61
f  60/60/60 63/63/63 62/62/62
f  62/62/62 63/63/63 64/64/64
f  61/61/61 62/62/62 65/65/65
f  64/64/64 65/65/65 62/62/62
f  61/61/61 65/65/65 43/43/43
f  65/65/65 64/64/64 66/66/66
f  43/43/43 65/65/65 67/67/67
f  66/66/66 67/67/67 65/65/65
f  43/43/43 67/67/67 40/40/40
f  67/67/67 66/66/66 68/68/68
f  40/40/40 67/67/67 69/69/69
f  68/68/68 69/69/69 67/67/67
f  40/40/40 69/69/69 30/30/30
f  30/30/30 69/69/69 70/70/70
f  68/68/68 70/70/70 69/69/69
f  30/30/30 70/70/70 14/14/14
f  14/14/14 70/70/70 17/17/17
f  17/17/17 70/70/70 68/68/68
f  68/68/68 71/71/71 17/17/17
f  71/71/71 72/72/72 17/17/17
f  17/17/17 72/72/72 18/18/18
f  72/72/72 71/71/71 73/73/73
f  18/18/18 72/72/72 74/74/74
f  73/73/73 75/75/75 72/72/72
f  72/72/72 75/75/75 74/74/74
f  75/75/75 73/73/73 76/76/76
f  76/76/76 74/74/74 75/75/75
f  77/77/77 78/78/78 79/79/79
f  79/79/79 80/80/80 77/77/77
f  81/81/81 77/77/77 80/80/80
f  80/80/80 82/82/82 81/81/81
f  83/83/83 81/81/81 82/82/82
f  82/82/82 84/84/84 83/83/83
f  83/83/83 84/84/84 85/85/85
f  85/85/85 86/86/86 83/83/83
f  86/86/86 85/85/85 87/87/87
f  87/87/87 88/88/88 86/86/86
f  88/88/88 87/87/87 89/89/89
f  89/89/89 90/90/90 88/88/88
f  90/90/90 89/89/89 91/91/91
f  91/91/91 92/92/92 90/90/90
f  92/92/92 91/91/91 93/93/93
f  93/93/93 94/94/94 92/92/92
f  95/95/95 94/94/94 93/93/93
f  93/93/93 96/96/96 95/95/95
f  97/97/97 95/95/95 96/96/96
f  96/96/96 98/98/98 97/97/97

g
